<?xml version="1.0" encoding="utf-8"?>
<!-- Generator: Adobe Illustrator 24.0.0, SVG Export Plug-In . SVG Version: 6.00 Build 0)  -->
<svg version="1.1" id="Capa_1" xmlns="http://www.w3.org/2000/svg" xmlns:xlink="http://www.w3.org/1999/xlink" x="0px" y="0px"
	 viewBox="0 0 321.4 54.9" style="enable-background:new 0 0 321.4 54.9;" xml:space="preserve">
<style type="text/css">
	.st0{fill:#48A0EB;}
	.st1{font-family:'Helvetica-Bold';}
	.st2{font-size:51px;}
	.st3{letter-spacing:-1;}
</style>
<path class="st0" d="M59.6,8c0.5,0.4,0.9,0,1.3,0c0.7,0,1.6-0.8,1.9,0c0.3,0.8,0.5,2-0.4,2.6c-3.7,2.3-3.1,6.1-3.6,9.6
	C56.6,36.5,45.4,51,27.6,54.1c-9.3,1.6-18.2,0.1-26.4-4.8c-0.3-0.2-0.5-0.4-1.3-1c7.3,0.5,13.6-1.1,19.3-5.4
	c-4.8-0.8-8.6-2.9-10.9-7C7,33.5,7.1,33.4,10,33.3c0.6,0,1.3,0,2.1-0.2c-5.7-2.8-9.5-6.9-9.5-13.8c1.7,0.4,3.1,1.3,5,1.2
	c-0.8-1-1.6-1.9-2.2-2.8C2.3,13.6,1.7,9,3.6,4.1c0.5-1.3,1-1.5,2-0.3C12,11,20,15.3,29.4,16.7c1.8,0.3,2.7,0.2,2.6-2.1
	C31.9,6.7,36.5,1.3,44.2,0.1c3.4-0.5,6.7,0.4,9.3,2.7c1.6,1.4,2.9,1.5,4.7,0.8c1-0.4,2-0.8,3-1.1c0.5-0.2,1.1-0.9,1.5-0.4
	c0.5,0.6,0.4,1.5-0.1,2.1C61.7,5.5,60.7,6.8,59.6,8z"/>
<text transform="matrix(1 0 0 1 91.9915 42.0792)" class="st0 st1 st2 st3">Marketing</text>
</svg>
